<svg id="吹き出しのアイコン6" xmlns="http://www.w3.org/2000/svg" width="34.56" height="29.684" viewBox="0 0 34.56 29.684">
  <path id="パス_2" data-name="パス 2" d="M256.407,231.074a6.691,6.691,0,0,0,1.26-3.871,6.868,6.868,0,0,0-1.9-4.66,9.793,9.793,0,0,0-4.653-2.734l-.488,1.8a7.936,7.936,0,0,1,3.771,2.2,5,5,0,0,1,1.409,3.4,4.831,4.831,0,0,1-.922,2.8,6.98,6.98,0,0,1-2.546,2.145l-.786.4,1.018,2.277a40.737,40.737,0,0,1-7.4-2.1l-.029-.011-.029-.009a7.2,7.2,0,0,1-4.227-3.22l-1.632.9a9.031,9.031,0,0,0,5.243,4.079h0a40.147,40.147,0,0,0,9.507,2.455l1.616.179-1.671-3.737A8.548,8.548,0,0,0,256.407,231.074Z" transform="translate(-223.107 -207.41)" fill="#4b4b4b"/>
  <path id="パス_3" data-name="パス 3" d="M24.236,53.043a9.357,9.357,0,0,0,2.423-6.181,8.986,8.986,0,0,0-1.084-4.257,11.7,11.7,0,0,0-4.874-4.7,15.672,15.672,0,0,0-7.371-1.785A15.1,15.1,0,0,0,3.985,39.2a10.985,10.985,0,0,0-2.9,3.409A8.987,8.987,0,0,0,0,46.862a9.15,9.15,0,0,0,1.726,5.293A11.919,11.919,0,0,0,5.4,55.5L3.165,60.5l1.616-.179a56.974,56.974,0,0,0,13.464-3.478A13.288,13.288,0,0,0,24.236,53.043ZM17.6,55.1l-.028.011A57.59,57.59,0,0,1,6.211,58.25l1.6-3.578-.786-.4a10.354,10.354,0,0,1-3.777-3.185,7.283,7.283,0,0,1-1.387-4.222,7.12,7.12,0,0,1,.865-3.38,9.847,9.847,0,0,1,4.11-3.933,13.809,13.809,0,0,1,6.494-1.565,13.25,13.25,0,0,1,8.191,2.672,9.135,9.135,0,0,1,2.414,2.827,7.127,7.127,0,0,1,.864,3.38,7.489,7.489,0,0,1-1.963,4.956,11.462,11.462,0,0,1-5.206,3.271Z" transform="translate(0 -36.123)" fill="#4b4b4b"/>
  <path id="パス_4" data-name="パス 4" d="M99.589,177.679a1.448,1.448,0,1,0,1.448,1.448A1.448,1.448,0,0,0,99.589,177.679Z" transform="translate(-91.517 -168.124)" fill="#4b4b4b"/>
  <path id="パス_5" data-name="パス 5" d="M182.3,177.679a1.448,1.448,0,1,0,1.448,1.448A1.448,1.448,0,0,0,182.3,177.679Z" transform="translate(-168.648 -168.124)" fill="#4b4b4b"/>
  <path id="パス_6" data-name="パス 6" d="M265.017,177.679a1.448,1.448,0,1,0,1.448,1.448A1.448,1.448,0,0,0,265.017,177.679Z" transform="translate(-245.779 -168.124)" fill="#4b4b4b"/>
</svg>
