<svg xmlns="http://www.w3.org/2000/svg" width="33.564" height="31.462" viewBox="0 0 33.564 31.462">
  <g id="comment" transform="translate(0 -16)">
    <path id="パス_1" data-name="パス 1" d="M29.309,16H4.251A4.3,4.3,0,0,0,0,20.33v17.6a4.3,4.3,0,0,0,4.251,4.33H14.424l4.9,4.986a.714.714,0,0,0,.788.16.737.737,0,0,0,.446-.68V42.261h8.755a4.3,4.3,0,0,0,4.251-4.33V20.33A4.3,4.3,0,0,0,29.309,16ZM6.293,23.6V21.5H27.268v2.1Zm0,6.555v-2.1H27.268v2.1Zm14.945,4.457v2.1H6.293v-2.1Z" fill="#fff"/>
  </g>
</svg>
