<svg xmlns="http://www.w3.org/2000/svg" width="45.615" height="22.65" viewBox="0 0 45.615 22.65">
  <g id="目のの無料アイコン7" transform="translate(0 -128.886)">
    <path id="パス_1" data-name="パス 1" d="M45.615,142.542a29.742,29.742,0,0,0-5.7-6.826,27.754,27.754,0,0,0-7.1-4.677,24.343,24.343,0,0,0-20.017,0,28.984,28.984,0,0,0-9.562,7.149A27.258,27.258,0,0,0,0,142.542l2.613,1.469,1.218.69,0,0h0a25.936,25.936,0,0,1,5.033-5.909,23.17,23.17,0,0,1,5.9-3.812,19.948,19.948,0,0,1,16.237.073,24.617,24.617,0,0,1,8.09,6.07,26.543,26.543,0,0,1,2.047,2.593c.225.326.391.585.5.756.053.086.091.15.115.189l.022.04,0,.006.865-.492-.867.487Z" fill="#222"/>
    <path id="パス_2" data-name="パス 2" d="M177.307,210.339a7.7,7.7,0,1,0,7.7,7.7A7.7,7.7,0,0,0,177.307,210.339Z" transform="translate(-154.5 -74.196)" fill="#222"/>
  </g>
</svg>
