<svg xmlns="http://www.w3.org/2000/svg" width="26.829" height="31.656" viewBox="0 0 26.829 31.656">
  <path id="パス_1" data-name="パス 1" d="M65.232,18.252a3.239,3.239,0,0,0,.841-2.131,3.808,3.808,0,0,0-3.8-3.8H57.415a2.622,2.622,0,0,1-1.337-.26l-.009-.012a4.91,4.91,0,0,1,.757-1.308,6.352,6.352,0,0,0,.854-1.447l.082-.222a9.034,9.034,0,0,0,.4-6.382A3.658,3.658,0,0,0,54.793,0a3.745,3.745,0,0,0-3.525,3.394c-.111.672-1.585,3.208-4.4,6.517a23.341,23.341,0,0,1-2.586,2.483c-.734.636-1.494,1.293-2.3,2.1a10.747,10.747,0,0,0-2.56,9.112A8.327,8.327,0,0,0,43.778,30c1.907.954,5.61,1.487,8.434,1.591,1.182.043,2.072.064,2.8.064a22.32,22.32,0,0,0,2.971-.178l.3-.033.05-.006,1.427-.207h.027a3.783,3.783,0,0,0,3.189-3.745v-.134a3.768,3.768,0,0,0,1.782-3.217,3.622,3.622,0,0,0-.192-1.207,3.769,3.769,0,0,0,.669-4.676Z" transform="translate(-39.244)" fill="#fff"/>
</svg>
