<svg xmlns="http://www.w3.org/2000/svg" width="26.802" height="31.659" viewBox="0 0 26.802 31.659">
  <path id="パス_1" data-name="パス 1" d="M65.232,18.252a3.239,3.239,0,0,0,.841-2.131,3.808,3.808,0,0,0-3.8-3.8H57.415a2.622,2.622,0,0,1-1.337-.26l-.009-.012a4.91,4.91,0,0,1,.757-1.308,6.352,6.352,0,0,0,.854-1.447l.082-.222a9.034,9.034,0,0,0,.4-6.382A3.658,3.658,0,0,0,54.793,0a3.745,3.745,0,0,0-3.525,3.394c-.111.672-1.585,3.208-4.4,6.517a23.34,23.34,0,0,1-2.586,2.483c-.734.636-1.494,1.293-2.3,2.1a10.747,10.747,0,0,0-2.56,9.112A8.327,8.327,0,0,0,43.778,30c1.907.954,5.61,1.487,8.434,1.591,1.182.043,2.072.064,2.8.064a22.32,22.32,0,0,0,2.971-.178l.3-.033.05-.006,1.427-.207.027,0a3.783,3.783,0,0,0,3.189-3.745l0-.134a3.768,3.768,0,0,0,1.782-3.217,3.622,3.622,0,0,0-.192-1.207,3.769,3.769,0,0,0,.669-4.676ZM62.37,18.5h1.113a2.236,2.236,0,0,1-.1,3.412H61.893a.511.511,0,0,0,0,1.021h.931a1.7,1.7,0,0,1,.4,1.2,2.239,2.239,0,0,1-.833,1.739H60.955a.511.511,0,1,0,0,1.021h.4a2.133,2.133,0,0,1,.085.591,2.262,2.262,0,0,1-1.9,2.232l-1.427.207a22.551,22.551,0,0,1-3.1.2c-.684,0-1.555-.019-2.746-.064-2.7-.1-6.16-.607-7.806-1.43-4.608-2.3-4.611-9.843-1.4-13.058,1.815-1.815,3.492-2.933,4.968-4.67,2.281-2.683,4.515-5.868,4.745-7.26a2.226,2.226,0,0,1,2.013-2.112,2.147,2.147,0,0,1,1.925,1.662,7.888,7.888,0,0,1-.475,5.569c-.4,1.1-2.631,2.895-1.273,4.351a3.628,3.628,0,0,0,2.412.737h4.89a2.27,2.27,0,0,1,2.27,2.27,1.838,1.838,0,0,1-.705,1.36H62.37a.511.511,0,1,0,0,1.022Z" transform="translate(-39.272)" fill="#4b4b4b"/>
</svg>
