<?xml version="1.0" encoding="utf-8"?>
<!-- Generator: Adobe Illustrator 22.0.1, SVG Export Plug-In . SVG Version: 6.00 Build 0)  -->
<svg version="1.1" id="レイヤー_1" xmlns="http://www.w3.org/2000/svg" xmlns:xlink="http://www.w3.org/1999/xlink" x="0px"
	 y="0px" viewBox="0 0 351.5 54.2" style="enable-background:new 0 0 351.5 54.2;" xml:space="preserve">
<style type="text/css">
	.st0{fill:#FFFFFF;}
</style>
<g>
	<path class="st0" d="M73.7,38.2c-0.5,1.4-0.8,2.7-0.8,3.5c0,1.5,1.1,2.2,3.6,2.3v1.1H66.4V44c2.5,0,3.9-1.5,5.5-5.8l9.2-24.3
		l2.7-0.3l9.1,26c1.2,3.5,2,4.3,4.5,4.4v1.1H86.3V44c2.2-0.1,3.1-0.6,3.1-1.8c0-0.5-0.2-1.4-0.5-2.5l-1.8-5.4h-12L73.7,38.2z
		 M81.3,17.7l-5.6,15h10.8L81.3,17.7z"/>
	<path class="st0" d="M99.6,44c3.5-0.1,3.7-0.4,3.7-4.4V19.4c0-4-0.3-4.3-3.7-4.4v-1h11.4v1c-3.5,0.2-3.8,0.4-3.8,4.4v20.3
		c0,4,0.3,4.3,3.8,4.4v1.1H99.6V44z"/>
	<path class="st0" d="M126.6,22.9h2c0.9-1.2,1.2-1.6,2.2-2.7c1.5,1.2,1.9,1.6,3.3,3c0.2,0.2,0.3,0.3,0.3,0.4c0,0.2-0.2,0.3-0.4,0.3
		h-7.4v4c1.9,0.9,3.2,1.6,4.6,2.7c1.8,1.3,2.4,2.1,2.4,3.2c0,1.5-0.5,2.8-1.1,2.8c-0.3,0-0.5-0.2-0.8-0.8c-1.6-3.2-3-5.1-5.2-6.9
		v6.7c0,10.3,0,10.3,0,13.2c0,0.3-0.1,0.4-0.3,0.5c-0.2,0-1.8,0.2-2.3,0.2c-0.3,0-0.4-0.1-0.4-0.4c0-2.2,0.1-2.6,0.1-4.7
		c0.1-5.7,0.1-6.5,0.2-8.8l0.3-7.6c-2.6,5.7-4.4,8.2-8.9,13l-0.5-0.3c2.8-4,4-6,5.5-9c1.2-2.6,1.3-2.6,3.2-7.9h-5.3
		c-0.8,0-1.8,0.1-2.6,0.3l-0.3-1.6c1.2,0.3,1.9,0.4,3.3,0.4h5.1v-6.6c-3.1,0.6-4.3,0.9-7.4,1.2l-0.3-0.6c4.1-1.1,6.4-1.8,9.5-3.2
		c2.9-1.2,4-1.8,5.4-2.8c3.7,2.5,3.7,2.5,3.7,2.8c0,0.3-0.3,0.4-0.8,0.4c-0.2,0-0.7-0.1-1.5-0.2c-2.5,0.9-3.3,1.1-5.8,1.7V22.9z
		 M138.4,47.2c0,0.1,0,0.2,0,0.2c0,0.5-0.4,0.7-1.4,0.7c-0.4,0-0.6,0-0.8,0c0,0-0.1,0-0.1,0c-0.5,0-0.6-0.2-0.7-0.6
		c0.1-4.3,0.2-6.1,0.2-11.3c0-14.2,0-18.2-0.2-20.9c1.5,0.9,1.9,1.2,3.3,2.2h9.8c0.8-0.9,1.1-1.1,1.9-1.9c1.1,0.8,1.4,1,2.5,2
		c0.3,0.3,0.4,0.4,0.4,0.6c0,0.3-0.4,0.6-1.4,1.2v8.9c0,9.8,0,12.7,0.3,18.7c0,0.6-0.4,0.8-1.8,0.8c-0.4,0-0.7,0-0.9,0h0
		c-0.3,0-0.5-0.2-0.5-0.5c0,0,0,0,0-0.1v-2.8h-10.4V47.2z M138.4,43.4h10.4V18.5h-10.4V43.4z"/>
	<path class="st0" d="M157.3,31.4c4.8-3.3,8.3-6.6,12.1-11.5c2-2.5,3.9-5.3,4.7-7.1c0.3-0.6,0.5-1.1,0.8-2.1c1,0.2,1.7,0.3,2.2,0.4
		c2.4,0.5,2.9,0.6,2.9,1c0,0.3-0.5,0.6-1.7,0.8c2.1,3.5,5,6.5,8.9,9.3c3.7,2.6,7.1,4.3,11.1,5.3l-0.1,0.6c-1.8,0.2-2.5,0.8-3.4,2.8
		c-4-2.1-6.3-3.7-9.5-7c-3.2-3.2-4.6-5.2-7.7-10.7c-3.1,4.9-5.8,8.1-9.7,11.7c-3.4,3.1-6.2,5-10.2,7L157.3,31.4z M168,48.4
		c0,0.4,0,0.5-0.3,0.6c-0.4,0.1-1.4,0.3-2.2,0.3c-0.5,0-0.6-0.1-0.6-0.6c0.1-6.7,0.1-8.8,0.1-10.6c0-3.4,0-5-0.1-6.6
		c1.6,0.9,2.1,1.2,3.4,2.2h17.4c0.7-0.9,0.9-1.2,1.8-2.2c1.2,0.9,1.6,1.2,2.8,2.2c0.3,0.3,0.4,0.4,0.4,0.6c0,0.3-0.4,0.6-1.4,0.9
		c0,6.3,0,6.3,0.2,12.9c0,0.1,0,0.1,0,0.2c0,0.3-0.1,0.5-0.4,0.6c-0.3,0.1-1.7,0.3-2.2,0.3c-0.4,0-0.6-0.2-0.6-0.5c0,0,0-0.1,0-0.2
		v-1.8H168V48.4z M167.9,26c1.2,0.2,2.3,0.3,3.2,0.3h9c1-1.1,1.3-1.5,2.3-2.6c1.5,1.2,2.1,1.5,3.6,2.8c0.2,0.2,0.3,0.4,0.3,0.5
		c0,0.2-0.1,0.2-0.6,0.2h-14.7c-0.8,0-1.5,0-2.8,0.3L167.9,26z M168,45.6h18.2v-11H168V45.6z"/>
	<path class="st0" d="M225.2,23.8c-0.4-2.7-1-4.3-2.1-5.8c-1.8-2.2-4.4-3.5-7.2-3.5c-3.1,0-6,1.6-7.5,4.2c-1.6,2.6-2.5,6.3-2.5,10.4
		c0,9,4.3,14.9,10.8,14.9c4.8,0,8.6-2.9,10.3-7.8l1.2,0.6c-0.9,2.5-2,4.2-3.5,5.7c-2.2,2.1-5.5,3.3-9.2,3.3c-3.9,0-7.4-1.5-9.9-4.2
		c-2.7-2.9-4-6.8-4-11.6c0-6,2.2-11.1,6.1-14c2.2-1.7,5.2-2.6,8.1-2.6c1.7,0,3.6,0.3,5.5,0.9c2,0.6,2.5,0.7,3.2,0.7
		c0.6,0,0.8-0.1,2.2-0.6v9.4H225.2z"/>
	<path class="st0" d="M231,44.1c3.4-0.1,3.7-0.4,3.7-4.4V19.4c0-4-0.3-4.3-3.7-4.4v-1.1h11.4V15c-3.5,0.1-3.8,0.4-3.8,4.4v24.4h6.1
		c5.2,0,7-1.7,8.3-7.4l1.3,0.2l-0.8,8.6H231V44.1z"/>
	<path class="st0" d="M256.5,44c3.5-0.1,3.7-0.4,3.7-4.4V19.4c0-4-0.3-4.3-3.7-4.4v-1h11.4v1c-3.5,0.2-3.8,0.4-3.8,4.4v20.3
		c0,4,0.3,4.3,3.8,4.4v1.1h-11.4V44z"/>
	<path class="st0" d="M276.8,37.8c0,3.4,0.1,4.4,0.6,5.1c0.5,0.8,1.4,1.1,3.1,1.2v1.1H271V44c1.6,0,2.5-0.3,3.1-1.2
		c0.6-0.8,0.9-2.5,0.9-5.8V19.7c0-4.2-0.3-4.6-3.5-4.8v-1h7.6L297,39.6V22c0-3.9-0.1-5.1-0.6-5.8c-0.6-0.8-1.5-1.1-3.3-1.2v-1h9.6v1
		c-3.2,0.2-3.9,1.3-3.9,6.4v23.9h-2.5l-19.6-28.2V37.8z"/>
	<path class="st0" d="M305.9,44c3.5-0.1,3.7-0.4,3.7-4.4V19.4c0-4-0.3-4.3-3.7-4.4v-1h11.4v1c-3.5,0.2-3.8,0.4-3.8,4.4v20.3
		c0,4,0.3,4.3,3.8,4.4v1.1h-11.4V44z"/>
	<path class="st0" d="M345.5,23.8c-0.4-2.7-1-4.3-2.1-5.8c-1.8-2.2-4.4-3.5-7.2-3.5c-3.1,0-6,1.6-7.5,4.2c-1.6,2.6-2.5,6.3-2.5,10.4
		c0,9,4.3,14.9,10.8,14.9c4.8,0,8.6-2.9,10.3-7.8l1.2,0.6c-0.9,2.5-2,4.2-3.5,5.7c-2.2,2.1-5.5,3.3-9.2,3.3c-3.9,0-7.4-1.5-9.9-4.2
		c-2.7-2.9-4-6.8-4-11.6c0-6,2.2-11.1,6.1-14c2.2-1.7,5.2-2.6,8.1-2.6c1.7,0,3.6,0.3,5.5,0.9c2,0.6,2.5,0.7,3.2,0.7
		c0.6,0,0.8-0.1,2.2-0.6v9.4H345.5z"/>
</g>
<path class="st0" d="M6.9,18.2c0-0.2,0-0.3,0-0.5c0-0.1,0.1-0.2,0.2-0.2c0.3,0.1,0.5,0.2,0.8,0.3c0.4,0.2,0.7,0.5,1,0.7
	c0.4,0.3,0.6,0.5,0.9,0.8c0.3,0.3,0.5,0.6,0.8,1c0.1,0.1,0.2,0.3,0.3,0.4s0.2,0.1,0.3,0.1l0,0c0.4-0.2,0.8-0.3,1.2-0.5
	c0.5-0.3,1.1-0.4,1.5-0.6c0.1-0.1,0.2,0,0.4-0.1c0.1,0,0.1,0,0.2-0.1c0.1-0.1,0.2-0.2,0.3-0.3c0.1,0.3,0.3,0.2,0.4,0.1
	c0.5-0.2,0.9-0.4,1.3-0.5c0.2-0.1,0.5-0.1,0.6-0.2c0.5-0.2,0.9-0.3,1.4-0.5c0.4-0.1,0.4-0.2,0.5-0.5c0.1-0.5,0.1-0.9,0-1.5
	c0-0.3-0.1-0.5-0.3-0.6c-0.3-0.3-0.5-0.6-0.5-1c0-0.1-0.1-0.2-0.1-0.3s0-0.1,0-0.2c0.1-0.1,0-0.1-0.1-0.2c-0.1,0-0.1,0-0.2-0.1
	c-0.4-0.4-0.7-0.7-1.2-1.1c-0.3-0.3-0.5-0.5-0.8-0.8c-0.1-0.1-0.1-0.2-0.2-0.3c0-0.1,0-0.2,0.1-0.3c0.1,0,0.2-0.1,0.3-0.2
	c-0.2-0.3-0.3-0.5-0.4-0.7c-0.2-0.3-0.1-0.6,0-0.9c0-0.1,0.1-0.2,0.2-0.2c0.1,0,0.1,0,0.2-0.1c0.4,0.1,0.5,0,0.6-0.2
	c0.1-0.2,0.3-0.3,0.4-0.5c0,0,0-0.1,0.1-0.1c0.6-0.5,1.4-1.2,2-1.7c0.7-0.6,1.4-1.2,2.2-1.8c0.3-0.2,0.3-0.3,0.2-0.5
	c-0.1-0.2-0.1-0.4-0.2-0.6c-0.1-0.3-0.2-0.5-0.3-0.8c0-0.1,0-0.1,0-0.3C21,2.9,21.1,2.9,21.3,3c0.3,0.1,0.5,0.3,0.8,0.4
	c0.2,0.1,0.5,0.1,0.6,0.1s0.4,0,0.5,0s0.5,0.3,0.5,0.5c0,0.1,0.1,0.2,0.2,0.3c0.3,0.3,0.5,0.5,0.7,0.7c0.2,0.2,0.3,0.4,0.5,0.5
	c0,0,0.1,0,0.1,0.1c0.1,0.1,0.1,0.2,0.2,0.3c0,0.2,0.2,0.4,0.3,0.5c0.1,0.1,0.1,0.1,0.2,0.2c0.1,0.1,0.1,0.2,0.2,0.3
	c0.2,0.2,0.2,0.4,0.2,0.6c0,0.1,0,0.1,0.1,0.2c0.3,0.4,0.3,0.7,0.2,1.1c0,0.2-0.2,0.3-0.3,0.5c-0.1,0.1-0.2,0.3-0.3,0.4
	c-0.1,0.1-0.3,0.3-0.4,0.4c-0.3,0.3-0.6,0.5-0.9,0.7c-0.1,0.1-0.2,0.2-0.4,0.2c0,0-0.1,0-0.1,0.1c-0.4,0.3-0.7,0.5-1,0.7
	c-0.2,0.2-0.5,0.4-0.6,0.5s-0.4,0.3-0.5,0.4c-0.1,0.1-0.3,0.2-0.4,0.3c-0.3,0.2-0.5,0.5-0.7,0.6c-0.1,0.1-0.2,0.2-0.3,0.3
	c-0.1,0.1-0.2,0.2-0.4,0.3c0.1,0,0.2,0.1,0.3,0.1c0.4,0.2,0.7,0.3,0.9,0.6c0.3,0.4,0.5,0.7,0.8,1.1c0.3,0.4,0.5,0.7,0.7,1.1
	c0,0.1,0.1,0.1,0.2,0.1c0.2,0,0.5,0,0.6,0c0.5-0.1,0.9-0.2,1.4-0.2c0.2,0,0.4-0.1,0.5-0.3c0.1-0.1,0.2-0.1,0.4-0.1
	c0.1,0,0.2-0.1,0.3-0.1c0,0,0-0.1,0.1-0.1c-0.1,0.2,0,0.3,0.2,0.3l0.1,0.1c0.2,0.2,0.5,0.3,0.7,0.3l0.1,0.1l0.1,0.1
	c0.2,0.1,0.4,0.3,0.5,0.4c0,0,0.1,0,0.2,0c0.3-0.1,0.5,0,0.5,0.2v0.1c-0.1,0.2-0.2,0.4-0.2,0.5c0,0.1,0,0.2,0.1,0.2
	c0.2,0,0.3-0.1,0.5-0.1c0.1,0,0.2,0,0.2,0c-0.1,0.2-0.2,0.4-0.3,0.5c-0.1,0.1-0.1,0.2,0,0.3c0.1,0,0.1,0.1,0.1,0.1
	c0.2,0.1,0.2,0.1,0.3,0c0.1-0.1,0.3-0.1,0.5-0.2l0.1,0.1c0,0.1,0,0.2-0.1,0.3c0,0-0.1,0.1-0.1,0c-0.2,0-0.1,0.1-0.1,0.2
	c0,0.1,0,0.1,0,0.2c0,0.2-0.1,0.3,0,0.5c0.1,0.1,0.1,0.4,0.1,0.5c0,0.1,0,0.1,0,0.2c0,0.1,0.2,0.2,0,0.3c-0.1,0-0.2,0.1-0.3,0.2
	c-0.1,0.1-0.2,0.2-0.3,0.2c-0.2,0.2-0.5,0.2-0.6,0.2c-0.4,0-0.6,0-1-0.1c-0.2-0.1-0.4-0.1-0.5-0.1c-0.1,0-0.3,0-0.4,0.1
	c-0.3,0.1-0.5,0.2-0.8,0.2c-0.4,0.1-0.7,0.3-1.1,0.3c-0.2,0-0.4,0.1-0.6,0.2c-0.1,0-0.3,0.1-0.4,0.1c-0.1,0-0.1,0.1-0.2,0.1
	c0,0.1,0,0.2,0,0.4c0,0.5,0,1.2,0,1.7c0,0.2-0.1,0.3-0.1,0.5c0,0.1,0,0.3-0.1,0.4c0,0.1,0,0.2,0,0.3c0,0.4,0.2,0.7,0.3,1.1
	c0,0.2,0,0.5,0,0.6c0,0.5-0.1,1-0.3,1.5c-0.2,0.4-0.3,0.7-0.4,1.1c-0.1,0.3,0,0.5-0.1,0.8c0,0.1,0,0.2,0,0.3c0.1,0,0.1,0,0.2-0.1
	c0.3-0.1,0.5-0.3,0.8-0.4c0.5-0.2,0.9-0.5,1.4-0.7c0.2-0.1,0.4-0.2,0.5-0.3c0,0,0,0,0.1,0c0.2,0,0.3-0.1,0.3-0.2
	c0.1,0.1,0.2,0.1,0.2,0c0,0,0.1-0.1,0.2-0.1c0.2,0.1,0.3,0,0.4-0.2c0.1-0.2,0.4-0.3,0.5-0.5c0.1-0.1,0.2-0.2,0.3-0.2
	c0.1,0,0.1,0,0.2,0c0.1,0,0.1,0,0.2-0.1l0.1-0.1c0.1-0.2,0.3-0.3,0.5-0.2c-0.1,0.1-0.2,0.2-0.4,0.2c0,0,0,0,0,0.1
	c0.2-0.1,0.4-0.2,0.5-0.3v-0.1c0-0.1,0-0.2,0.1-0.3c0.3-0.2,0.4-0.5,0.5-0.8c0.2-0.3,0.4-0.6,0.5-1c0-0.1,0.1-0.1,0.1-0.2
	s0-0.1-0.1-0.2c-0.2-0.1-0.2-0.1-0.1-0.3c0.1-0.2,0.2-0.5,0.3-0.6c0.2-0.4,0.4-0.7,0.5-1.2c0.2-0.4,0.4-0.7,0.6-1
	c0.5-0.5,1.1-1.1,1.6-1.6c0.4-0.4,0.7-0.6,1-0.9s0.5-0.6,0.8-0.9c0.5-0.5,1-1.1,1.6-1.5c0.6-0.5,1.4-0.8,2-1.2
	c0.5-0.4,1.2-0.5,1.8-0.6c0.7-0.2,1.4-0.4,2.2-0.3c0.2,0,0.5-0.1,0.6-0.1c0.6-0.2,1.4-0.2,2-0.3c0.4,0,0.7-0.1,1.1-0.2
	c0.5-0.1,0.9-0.1,1.4,0c0.4,0.1,0.7,0.3,1.1,0.4s0.7,0.2,1,0.3c0.3,0.1,0.5,0.2,0.8,0.3c0.8,0.5,1.5,1,2.4,1.5
	c0.5,0.4,0.9,0.7,1.3,1.1c0.3,0.3,0.6,0.6,0.9,0.9c0.2,0.3,0.5,0.5,0.6,0.7c0.1,0.1,0.1,0.2,0.1,0.2c0.1,0.3,0.3,0.5,0.4,0.6
	c0.1,0.2,0.2,0.5,0.2,0.7c0,0.1,0,0.3,0.1,0.4c0.1,0.4,0.1,0.7,0.3,1.1c0.1,0.2,0.2,0.5,0.3,0.6v0.1c0,0.5,0.2,1,0.2,1.5
	c0,0.2,0,0.3,0.1,0.5c0.2,0.3,0.2,0.6,0.2,0.9c0,0.5,0,1,0,1.5c0,0.3,0.1,0.5,0.2,0.8c0,0.1,0,0.2,0.1,0.4c0,0.2,0.1,0.4,0.2,0.5
	c0.1,0.2,0.1,0.5,0.1,0.6c0,0.1,0,0.3,0.1,0.4c0,0.2,0.1,0.4,0.1,0.6c0.2,0.5,0.1,0.9,0.1,1.3c0,0.2,0,0.4,0,0.5
	c0,0.5-0.1,0.8-0.3,1.3c-0.3,0.6-0.5,1.3-0.7,1.9c0,0.1,0,0.1,0,0.2c0,0.2,0,0.3-0.1,0.5c-0.1,0.2-0.2,0.5-0.3,0.7
	c0,0.1,0,0.3-0.1,0.4c0,0.1-0.1,0.2-0.2,0.3l0,0c-0.1,0.2-0.2,0.5-0.3,0.6c-0.1,0.4-0.4,0.6-0.5,0.9c-0.2,0.4-0.4,0.5-0.6,0.8
	c-0.3,0.3-0.5,0.5-0.8,0.7c-0.1,0.1-0.2,0.2-0.3,0.3c-0.1,0.1-0.2,0.1-0.3,0.2c-0.2,0.1-0.3,0.2-0.5,0.3c-0.3,0.3-0.5,0.5-0.8,0.8
	c-0.1,0.1-0.2,0.1-0.3,0.2c-0.2,0.1-0.3,0.3-0.5,0.4C51.5,43.7,51.3,44,51,44l-0.1,0.1c-0.2,0.2-0.5,0.3-0.8,0.4
	c-0.3,0.1-0.5,0.3-0.7,0.4c-0.4,0.2-0.8,0.5-1.3,0.4c-0.3,0-0.5,0.1-0.6,0.1c-0.2,0.1-0.4,0.1-0.5,0.1c-0.3,0-0.5,0.1-0.8,0.2
	c-0.2,0-0.4,0.2-0.5,0.1c-0.3-0.2-0.5,0.1-0.7,0.1c-0.4,0-0.7,0.1-1.1,0.2c-0.1,0-0.3,0.1-0.4,0.1c-0.3,0-0.6,0.1-0.9,0.1
	c-0.2,0-0.3-0.1-0.5,0c-0.2,0.1-0.5,0-0.5,0.2c-0.1,0.1-0.2,0.1-0.3,0.1c-0.4,0-0.7,0-1.2,0c-0.1,0-0.2-0.1-0.3-0.1
	c-0.2,0-0.4-0.1-0.5-0.1c-0.5-0.1-0.9-0.2-1.4-0.4c-0.4-0.2-0.8-0.3-1.2-0.5c-0.2-0.1-0.4-0.2-0.5-0.3C36.3,45,36.2,45,36.1,45
	c-0.2,0-0.4-0.1-0.5-0.3l-0.1-0.1c-0.4-0.1-0.6-0.2-0.9-0.5c-0.1-0.1-0.1-0.1-0.2,0c-0.1,0-0.2,0-0.3-0.1L34.1,44
	c-0.2,0.1-0.2-0.2-0.3-0.3l0,0c0,0.2-0.2,0.1-0.4,0.2c-0.1,0-0.1,0-0.2-0.1c0-0.1-0.1-0.2-0.1-0.2s0,0-0.1,0v0.1v0.1H33
	c-0.1-0.4-0.5-0.4-0.7-0.5c-0.1-0.1-0.3-0.2-0.3-0.3s-0.1-0.2-0.2-0.3c-0.2-0.1-0.3-0.3-0.5-0.4c-0.1-0.1-0.1-0.1-0.3-0.1
	c-0.1,0-0.3-0.1-0.4-0.1c-0.1,0-0.1,0-0.2-0.1c-0.1,0-0.2-0.1-0.3-0.1c-0.1-0.1-0.2-0.2-0.1-0.4l-0.1-0.1l-0.1-0.1
	c0-0.1,0-0.2-0.1-0.4c0-0.1-0.1-0.1-0.2-0.2c-0.1-0.1-0.3-0.1-0.2-0.3c0-0.1-0.1-0.2-0.2-0.3c-0.2-0.1-0.4-0.3-0.4-0.5
	s0-0.4-0.2-0.5c-0.1-0.1-0.1-0.2-0.1-0.3c0-0.1,0-0.3-0.2-0.3c0,0,0,0-0.1-0.1c-0.2-0.3-0.3-0.6-0.5-0.9c-0.1-0.3-0.2-0.5-0.3-0.9
	c-0.1-0.4-0.1-0.6-0.2-1c0-0.1-0.1-0.2-0.1-0.4c-0.1-0.5-0.2-1-0.2-1.5c0-0.4,0-0.8,0-1.2c0-0.5,0.1-0.8,0.2-1.3
	c0.1-0.5,0.3-1,0.5-1.5c0.2-0.5,0.3-0.8,0.5-1.3c0.1-0.1,0.1-0.3,0.2-0.4v-0.1c-0.3,0.2-0.5,0.4-0.6,0.5s-0.5,0.4-0.6,0.5
	S27.1,29.9,27,30c-0.4,0.4-0.6,0.8-1,1.2c-0.2,0.3-0.5,0.5-0.6,0.8c0,0-0.1,0.1-0.1,0.2c-0.4,0.5-0.7,0.8-1.1,1.3
	c-0.1,0.1-0.3,0.2-0.5,0.4c-0.4,0.3-0.6,0.5-0.9,0.8c-0.1,0.1-0.2,0.3-0.2,0.4c0,0.5-0.1,1.1-0.1,1.6c0,0.1,0,0.1,0,0.1
	c-0.2,0.3-0.2,0.6-0.2,1c0,0.5,0,0.9,0,1.5c0,0.1,0,0.1,0,0.2c0.1,0.3,0.1,0.5,0.1,0.8c0,0.7,0,1.4,0.3,2c0.1,0.3,0.1,0.5,0.2,0.9
	c0.1,0.3,0.2,0.6,0.2,0.9c0.1,0.3,0.1,0.5,0.2,0.8c0.1,0.5,0.2,0.8,0.4,1.2s0.5,0.7,0.7,1.1c0,0.1,0.1,0.1,0.1,0.2
	c0.1,0.1,0.1,0.2,0,0.3c0,0.1,0,0.2-0.1,0.2c0,0.2-0.1,0.3-0.3,0.3c-0.2,0-0.5,0.1-0.6,0.1c-0.1,0-0.3,0-0.4,0c-0.1,0-0.3,0-0.4,0
	l0,0c-0.2-0.1-0.5-0.2-0.6-0.3c-0.1,0-0.2-0.1-0.3-0.1c-0.3,0-0.5-0.1-0.7-0.2c-0.4-0.2-0.7-0.3-1.1-0.4c-0.2-0.1-0.3-0.1-0.4-0.3
	c0-0.1-0.1-0.1-0.2-0.2c-0.1-0.2,0-0.4,0-0.5s0.1-0.4,0.1-0.5c0-0.7,0-1.5,0-2.2c0-0.2,0-0.4,0.1-0.5c0-0.1,0-0.2,0-0.3
	c0-0.3,0.1-0.5,0.1-0.9c0-0.9,0-1.8,0-2.7c0-0.6,0-1.3,0.1-1.9c0-0.1,0-0.2,0-0.3h-0.1c-0.2,0.2-0.4,0.3-0.5,0.5
	c-0.1,0.1-0.2,0.2-0.3,0.3c-0.2,0.2-0.3,0.3-0.5,0.5c-0.1,0.1-0.1,0.2-0.2,0.3c0,0.1-0.1,0.2-0.1,0.2c-0.2,0.2-0.5,0.5-0.6,0.6
	c-0.1,0.1-0.3,0.3-0.4,0.5c-0.2,0.3-0.5,0.5-0.6,0.7c-0.1,0.1-0.2,0.2-0.2,0.3c-0.2,0.4-0.5,0.5-0.9,0.6c-0.4,0.1-0.6,0.1-1,0
	c-0.3,0-0.5-0.1-0.7-0.2c-0.1-0.1-0.3,0-0.4-0.1c-0.4-0.1-0.8-0.3-1.2-0.4c-0.3-0.1-0.5-0.3-0.8-0.4c-0.2-0.1-0.4-0.3-0.4-0.5
	S11,39.2,11,38.9c0-0.1,0.1-0.2,0.1-0.3c0.1-0.2,0.3-0.2,0.4-0.4c0.1-0.1,0.2-0.2,0.2-0.4c0.2-0.5,0.4-0.8,0.5-1.3
	c0-0.1,0-0.1,0.1-0.2c0-0.1,0.1-0.2,0.1-0.3c0.3-0.4,0.6-0.7,0.9-1.1c0.2-0.3,0.4-0.6,0.6-0.9c0.2-0.3,0.5-0.5,0.6-0.9
	c0.1-0.1,0.2-0.3,0.2-0.4c0.3-0.4,0.5-0.6,0.7-1c0.1-0.1,0.1-0.2,0.2-0.3c0.1-0.2,0.2-0.4,0.4-0.5v-0.1c0.2-0.5,0.5-0.8,0.6-1.3
	c0.1-0.2,0.2-0.4,0.3-0.5c0.1-0.1,0.2-0.2,0.2-0.3c0.2-0.2,0.3-0.5,0.5-0.6v-0.1c0-0.1,0-0.2,0.1-0.4c0.3-0.5,0.5-1.2,0.8-1.7
	c0.1-0.3,0.2-0.5,0.4-0.8c0.1-0.2,0.1-0.4,0.1-0.5s-0.1-0.4-0.1-0.5c0-0.2-0.1-0.3-0.4-0.2c-0.4,0.2-0.8,0.5-1.2,0.6
	c-0.1,0.1-0.2,0.1-0.3,0.1c-0.5,0.2-0.8,0.3-1.3,0.5c-0.1,0-0.1,0.1-0.2,0.1c-0.2,0.1-0.4,0.2-0.5,0.3c-0.2,0.1-0.4,0.2-0.5,0.4
	c-0.2,0.1-0.4,0.2-0.5,0.3c-0.3,0.2-0.5,0.4-0.7,0.5C13.1,27,12.9,27,12.7,27c-0.1,0-0.1,0-0.2,0.1c-0.1,0.1-0.2,0-0.4,0.1
	c-0.3,0-0.5-0.1-0.7-0.2c-0.3-0.1-0.5-0.1-0.8-0.2h-0.1c-0.4-0.2-0.7-0.4-1.1-0.5c-0.5-0.4-1.2-0.7-1.7-1.1C7.6,25,7.6,25,7.6,25
	c0.1-0.2,0.2-0.4,0.2-0.6s0-0.5-0.2-0.8c-0.1-0.2-0.2-0.4-0.3-0.5v-0.1c0,0-0.1,0-0.2-0.1c-0.1-0.2-0.2-0.4-0.1-0.5
	c0-0.1,0-0.2-0.1-0.2s-0.2-0.1-0.2-0.2c-0.1-0.1-0.1-0.2-0.1-0.3s-0.1-0.2-0.2-0.3l-0.1-0.1c-0.1-0.4-0.2-0.7-0.3-1.1
	c0-0.1,0-0.2,0-0.2c0.1-0.1,0.2-0.2,0.2-0.3c0-0.1,0-0.3-0.1-0.4c-0.1-0.2-0.1-0.4-0.2-0.5c0-0.1,0.1-0.1,0.2-0.1
	c0.2,0.1,0.3,0.1,0.3-0.2C6.7,18.2,6.7,18.1,6.9,18.2L6.9,18.2z M37.1,39.9c0.2,0.1,0.3,0.1,0.4,0.2c0.3,0.1,0.5,0.2,0.8,0.3
	c0.1,0,0.2,0.1,0.2,0.1c0.2,0.1,0.3,0.2,0.5,0.2c0.2,0,0.4,0.2,0.6,0.1c0.4-0.1,0.7-0.1,1.1,0c0.1,0,0.2,0.1,0.3,0.2
	c0.2,0.1,0.4,0.1,0.5,0.1c0.3,0.1,0.5,0,0.7,0c0.3-0.1,0.5-0.4,0.9-0.3l0,0c0.2-0.1,0.4-0.1,0.5-0.2c0.4-0.1,0.7-0.1,1.1-0.2
	c0.2,0,0.3,0,0.5-0.1c0.2,0,0.5,0,0.6-0.1c0.4-0.1,0.8-0.2,1.2-0.4c0.3-0.1,0.6-0.2,0.9-0.4c0.4-0.2,0.7-0.4,1.1-0.6
	c0.7-0.5,1.4-0.9,1.7-1.6c0.1-0.2,0.3-0.4,0.3-0.5c0.1-0.3,0.2-0.5,0.3-0.8c0.2-0.4,0.4-0.7,0.5-1.1c0.1-0.3,0.3-0.5,0.3-0.7
	c0-0.2,0.1-0.4,0.2-0.5c0-0.1,0.1-0.2,0.1-0.4V33c0.1-0.3,0.3-0.5,0.4-0.9c0.1-0.2,0.2-0.4,0.2-0.5s0-0.5,0-0.6c0-0.1,0-0.3,0-0.4
	c0-0.4,0-0.7,0-1c0-0.3,0-0.5,0-0.9c0-0.2,0-0.4-0.1-0.5c-0.1-0.2-0.1-0.3-0.1-0.4c0-0.4,0.1-0.7,0.1-1.1c0-0.3,0-0.5,0-0.7
	c0.1-0.7-0.1-1.4-0.2-2.1c-0.1-0.5-0.2-0.9-0.4-1.4c-0.2-0.4-0.4-0.8-0.5-1.2c-0.2-0.3-0.4-0.5-0.5-0.9c-0.1-0.1-0.2-0.3-0.3-0.4
	c-0.5-0.5-0.9-0.8-1.4-1.1c-0.1-0.1-0.2-0.1-0.3-0.2c-0.4-0.2-0.7-0.3-1.1-0.5c-0.2-0.1-0.3-0.1-0.5,0c0,0-0.1,0-0.2,0
	c-0.3,0-0.5,0-0.8,0c-0.3,0-0.5,0-0.7,0.1c-0.5,0.2-0.9,0.3-1.4,0.3c-0.2,0-0.3,0-0.5,0c-0.2,0-0.3,0-0.5,0
	c-0.3,0.1-0.5,0.2-0.9,0.3c-0.2,0-0.3,0-0.5,0.1c-0.2,0.1-0.5,0.1-0.6,0.2c-0.1,0-0.2,0.1-0.3,0.1c-0.1,0-0.1,0.1-0.2,0.1
	c-0.3,0.1-0.5,0.2-0.7,0.2c-0.1,0-0.2,0.1-0.4,0.1L40,19.8c-0.4,0.1-0.6,0.2-0.9,0.5c-0.2,0.2-0.3,0.3-0.5,0.4
	c-0.1,0.1-0.2,0.2-0.4,0.3c-0.1,0.1-0.2,0.1-0.3,0.2c-0.2,0.1-0.3,0.3-0.5,0.4c-0.3,0.2-0.5,0.3-0.8,0.5c-0.3,0.2-0.5,0.4-0.8,0.5
	l-0.1,0.1c-0.1,0.3-0.4,0.4-0.5,0.6c-0.3,0.3-0.5,0.5-0.9,0.6c-0.1,0-0.1,0.1-0.1,0.2c0.1,0.2-0.1,0.3-0.1,0.4
	c-0.1,0.2-0.2,0.3-0.4,0.3c0,0-0.1,0-0.1,0.1c-0.1,0.1-0.2,0.2-0.3,0.4c-0.1,0.1-0.3,0.2-0.3,0.4c0.1,0.1,0.1,0.2,0,0.2l-0.1,0.1
	c-0.1,0.1-0.1,0.1-0.2,0.2C33,26,32.8,26,32.7,26s-0.2,0.1-0.3,0.1c-0.2,0-0.3-0.1-0.5-0.1c-0.1,0-0.3-0.1-0.4,0
	c-0.1,0.1-0.2,0.1-0.3,0.1c-0.2,0-0.3,0-0.5,0c-0.1,0-0.3,0-0.4,0c0,0-0.1,0-0.1,0.1c0,0.3-0.1,0.5,0,0.7c0,0.2,0.1,0.4,0.1,0.5
	c0,0.1,0,0.2,0,0.2c0.2,0,0.2,0.2,0.3,0.3c0.1,0.1,0.1,0.2,0.2,0.3c0.1,0.3,0.1,0.5,0.1,0.8c0,0.1,0,0.2,0,0.3
	c0,0.2,0.1,0.4,0.1,0.5c0,0.3-0.1,0.5-0.2,0.7c0,0.1-0.1,0.2-0.1,0.3c0,0.2-0.1,0.4-0.2,0.5c-0.2,0.3-0.3,0.5-0.3,0.8
	c0,0.3,0.1,0.5,0.1,0.8c0,0.1,0,0.2,0,0.4c0,0.3,0.2,0.4,0.3,0.5c0.1,0.1,0.2,0.3,0.3,0.4s0.1,0.2,0.2,0.3c0.1,0.1,0.3,0.2,0.4,0.3
	c0.1,0,0.1,0.1,0.1,0.2c0.2,0.5,0.3,0.9,0.5,1.3c0.1,0.2,0.2,0.4,0.4,0.5l0,0c0.2,0.1,0.3,0.2,0.5,0.4c0.1,0.1,0.2,0.2,0.3,0.3
	c0.1,0.2,0.3,0.4,0.4,0.5c0.1,0.1,0.2,0.2,0.2,0.3c0.1,0.1,0.1,0.1,0.2,0.2c0.1,0.1,0.2,0.3,0.2,0.4c0.1,0.1,0.1,0.3,0.2,0.4
	c0,0,0,0.1,0.1,0.1c0.2,0.2,0.3,0.3,0.5,0.5c0.2,0.2,0.3,0.3,0.5,0.4c0.2,0.1,0.3,0.1,0.5,0.2c0.2,0,0.2,0,0.3-0.1
	c0.1-0.1,0.3-0.1,0.4,0c0.1,0.1,0.2,0.1,0.3,0.2C37.1,40.1,37.1,40,37.1,39.9z M37,40.2C36.9,40.2,36.9,40.2,37,40.2
	c0.1,0.1,0.1,0.2,0.2,0.2v-0.1C37.1,40.2,37,40.2,37,40.2z"/>
</svg>
